<svg xmlns="http://www.w3.org/2000/svg" xmlns:xlink="http://www.w3.org/1999/xlink" width="512" height="512" x="0" y="0" viewBox="0 0 1000 1000" style="enable-background:new 0 0 512 512" xml:space="preserve"><defs><linearGradient id="a" x1="146.447" x2="853.554" y1="853.554" y2="146.447" gradientUnits="userSpaceOnUse"><stop offset="0" stop-color="#ffd521"></stop><stop offset=".055" stop-color="#ffd020"></stop><stop offset=".124" stop-color="#fec01e"></stop><stop offset=".2" stop-color="#fca71b"></stop><stop offset=".282" stop-color="#fa8316"></stop><stop offset=".368" stop-color="#f85510"></stop><stop offset=".456" stop-color="#f51e09"></stop><stop offset=".5" stop-color="#f30005"></stop><stop offset=".503" stop-color="#f20007"></stop><stop offset=".597" stop-color="#e1003b"></stop><stop offset=".688" stop-color="#d30067"></stop><stop offset=".776" stop-color="#c70088"></stop><stop offset=".859" stop-color="#bf00a0"></stop><stop offset=".936" stop-color="#bb00af"></stop><stop offset="1" stop-color="#b900b4"></stop></linearGradient></defs><g><linearGradient id="a" x1="146.447" x2="853.554" y1="853.554" y2="146.447" gradientUnits="userSpaceOnUse"><stop offset="0" stop-color="#ffd521"></stop><stop offset=".055" stop-color="#ffd020"></stop><stop offset=".124" stop-color="#fec01e"></stop><stop offset=".2" stop-color="#fca71b"></stop><stop offset=".282" stop-color="#fa8316"></stop><stop offset=".368" stop-color="#f85510"></stop><stop offset=".456" stop-color="#f51e09"></stop><stop offset=".5" stop-color="#f30005"></stop><stop offset=".503" stop-color="#f20007"></stop><stop offset=".597" stop-color="#e1003b"></stop><stop offset=".688" stop-color="#d30067"></stop><stop offset=".776" stop-color="#c70088"></stop><stop offset=".859" stop-color="#bf00a0"></stop><stop offset=".936" stop-color="#bb00af"></stop><stop offset="1" stop-color="#b900b4"></stop></linearGradient><path fill="url(&quot;#a&quot;)" d="M500 1000C223.9 1000 0 776.1 0 500S223.9 0 500 0s500 223.9 500 500-223.9 500-500 500z" opacity="1" data-original="url(#a)"></path><g fill="#FFFFFF"><path d="M500 220.2c91.1 0 101.9.3 137.9 2 33.3 1.5 51.4 7.1 63.4 11.8 15.9 6.2 27.3 13.6 39.2 25.5s19.3 23.3 25.5 39.2c4.7 12 10.2 30.1 11.8 63.4 1.6 36 2 46.8 2 137.9s-.3 101.9-2 137.9c-1.5 33.3-7.1 51.4-11.8 63.4-6.2 15.9-13.6 27.3-25.5 39.2s-23.3 19.3-39.2 25.5c-12 4.7-30.1 10.2-63.4 11.8-36 1.6-46.8 2-137.9 2s-101.9-.3-137.9-2c-33.3-1.5-51.4-7.1-63.4-11.8-15.9-6.2-27.3-13.6-39.2-25.5s-19.3-23.3-25.5-39.2c-4.7-12-10.2-30.1-11.8-63.4-1.6-36-2-46.8-2-137.9s.3-101.9 2-137.9c1.5-33.3 7.1-51.4 11.8-63.4 6.2-15.9 13.6-27.3 25.5-39.2s23.3-19.3 39.2-25.5c12-4.7 30.1-10.2 63.4-11.8 36-1.7 46.8-2 137.9-2m0-61.5c-92.7 0-104.3.4-140.7 2.1-36.3 1.7-61.1 7.4-82.9 15.9C254 185.3 234.9 197 216 216c-19 19-30.6 38-39.4 60.5-8.4 21.7-14.2 46.5-15.9 82.9s-2.1 48-2.1 140.7.4 104.3 2.1 140.7c1.7 36.3 7.4 61.1 15.9 82.9C185.3 746 197 765.1 216 784c19 19 38 30.6 60.5 39.4 21.7 8.4 46.5 14.2 82.9 15.9s48 2.1 140.7 2.1 104.3-.4 140.7-2.1c36.3-1.7 61.1-7.4 82.9-15.9C746 814.7 765.1 803 784 784c19-19 30.6-38 39.4-60.5 8.4-21.7 14.2-46.5 15.9-82.9s2.1-48 2.1-140.7-.4-104.3-2.1-140.7c-1.7-36.3-7.4-61.1-15.9-82.9C814.7 254 803 234.9 784 216c-19-19-38-30.6-60.5-39.4-21.7-8.4-46.5-14.2-82.9-15.9-36.3-1.6-47.9-2-140.6-2z" fill="#FFFFFF" opacity="1" data-original="#ffffff"></path><path d="M500 324.7c-96.8 0-175.3 78.5-175.3 175.3S403.2 675.3 500 675.3 675.3 596.8 675.3 500 596.8 324.7 500 324.7zm0 289.1c-62.8 0-113.8-50.9-113.8-113.8s51-113.8 113.8-113.8S613.8 437.1 613.8 500s-51 113.8-113.8 113.8z" fill="#FFFFFF" opacity="1" data-original="#ffffff"></path><circle cx="682.2" cy="317.8" r="41" fill="#FFFFFF" opacity="1" data-original="#ffffff"></circle></g></g></svg>