<svg xmlns="http://www.w3.org/2000/svg" xmlns:xlink="http://www.w3.org/1999/xlink" width="512" height="512" x="0" y="0" viewBox="0 0 512 512" style="enable-background:new 0 0 512 512" xml:space="preserve"><g><circle cx="256" cy="256" r="225" fill="#000000" opacity="1" data-original="#000000"></circle><path fill="#FFFFFF" d="M365.6 194.3c-.2 0-22.3-.4-41.1-14.2-16.4-12-22.1-38.1-23-47.8V131h-40v172.4c0 20.7-16.9 37.6-37.6 37.6s-37.6-16.9-37.6-37.6 16.9-37.6 37.6-37.6h12.6v-40h-12.6c-42.8 0-77.6 34.8-77.6 77.6s34.8 77.6 77.6 77.6 77.6-34.8 77.6-77.6v-90.7c29 20.9 60.4 21.5 64 21.5v-40h.1z" opacity="1" data-original="#ffffff"></path></g></svg>